<svg xmlns="http://www.w3.org/2000/svg" viewBox="0 0 27.97 29.16"><defs><style>.cls-1{fill:#625e5d;}</style></defs><title>metro</title><g id="Ebene_2" data-name="Ebene 2"><g id="Calque_1" data-name="Calque 1"><path class="cls-1" d="M28,29l-4.89-4.44h.86a1.42,1.42,0,0,0,1.49-1.33V2.67a1.38,1.38,0,0,0-1.1-1.29,1.61,1.61,0,0,0-.73-.18H17.17V.13H16.5V0H10.8V1.2H4A1.42,1.42,0,0,0,2.55,2.54V23.13a1.36,1.36,0,0,0,1.09,1.28,1.53,1.53,0,0,0,.74.18H5L0,29.16H5.37l3.22-4.57H19.48L22.61,29Zm-22-9.28a1.89,1.89,0,0,1,2-1.79,2.1,2.1,0,0,1,.76.14,1.7,1.7,0,0,1,.69,1.34,1.9,1.9,0,0,1-2,1.78,2.38,2.38,0,0,1-.76-.13A1.74,1.74,0,0,1,5.94,19.75ZM22.41,4a.91.91,0,0,1,.08.37v9.11a1.11,1.11,0,0,1-1.15,1H6.56a1.26,1.26,0,0,1-.87-.36,1,1,0,0,1-.08-.37V4.67a1.11,1.11,0,0,1,1.16-1H21.55A1.19,1.19,0,0,1,22.41,4ZM18.74,19.75a1.89,1.89,0,0,1,2-1.79,2.1,2.1,0,0,1,.76.14,1.72,1.72,0,0,1,.68,1.34,1.89,1.89,0,0,1-2,1.78,2.33,2.33,0,0,1-.76-.13A1.74,1.74,0,0,1,18.74,19.75Z"/></g></g></svg>